# xmcd
#
# Track frame offsets: 
#        150
#        19229
#        36431
#        60839
#        76442
#        92810
#        100410
#        111851
#        136941
#        158140
#        178695
#
# Disc length: 2789 seconds
#
# Revision: 0
# Processed by: cddbd v1.5.2PL0 Copyright (c) Steve Scherf et al.
# Submitted via: ExactAudioCopy v0.99pb5
#
DISCID=8a0ae30b
DTITLE=DJ Downfall - The Curse
DYEAR=1999
DGENRE=WIAIWYA
TTITLE0=Tha' Bump
TTITLE1=Breakin' My Heart
TTITLE2=Picabo Street
TTITLE3=All Routes Leading Down
TTITLE4=Greeny Engines
TTITLE5=As Long As You're Alive
TTITLE6=Ladies
TTITLE7=Roots
TTITLE8=(Make Me Feel) Like A Man
TTITLE9=The Money And The Kids
TTITLE10=Electricity
EXTD=
EXTT0=
EXTT1=
EXTT2=
EXTT3=
EXTT4=
EXTT5=
EXTT6=
EXTT7=
EXTT8=
EXTT9=
EXTT10=
PLAYORDER=
